<svg width="229" height="49" viewBox="0 0 229 49" fill="none" xmlns="http://www.w3.org/2000/svg">
<g id="Group 27380">
<g id="Group 157">
<path id="Path 113" d="M26.9772 40.3995C29.6373 38.3448 31.9911 35.9216 33.9677 33.2029C39.089 36.3144 45.5768 39.7727 50.6981 40.1181L40.3913 21.6342L33.9315 9.99449L28.4772 1.20447C28.3329 0.935488 28.1184 0.710652 27.8565 0.553927C27.5945 0.397202 27.2949 0.314453 26.9897 0.314453C26.6844 0.314453 26.385 0.397202 26.123 0.553927C25.8611 0.710652 25.6465 0.935488 25.5022 1.20447L20.0494 9.99032L13.5895 21.6328L2.88154 40.9092L0.158663 45.6448C-0.470887 46.7786 0.841137 48.4109 2.88996 48.4109C7.31173 48.6178 11.7287 47.9113 15.8653 46.3356C19.8913 45.0299 23.6536 43.02 26.9772 40.3995V40.3995Z" fill="#E0E7FC"/>
<g id="Group 156">
<path id="Path 114" d="M48.8658 39.0262C43.3812 37.6024 38.2681 35.0129 33.875 31.4341V31.4341C36.0513 28.5423 37.8265 25.3695 39.1524 22.002L48.8658 39.0262Z" fill="#2856F0"/>
<path id="Path 115" d="M39.1924 22.0368C37.8666 25.4044 36.0914 28.5771 33.9151 31.4688C31.3271 29.3705 29.0119 26.9566 27.0234 24.2833C29.8435 20.5071 31.9769 16.2639 33.3259 11.748L39.1924 22.0368Z" fill="#2835D5"/>
<path id="Path 116" d="M27.1361 38.5413C20.3137 44.0733 11.8339 47.1588 3.05168 47.3049C3.05077 47.3058 3.04964 47.3065 3.04845 47.307C3.04725 47.3076 3.046 47.3078 3.04471 47.3078C3.04341 47.3078 3.04216 47.3076 3.04097 47.307C3.03977 47.3065 3.03864 47.3058 3.03774 47.3049C2.77826 47.2741 2.53047 47.1794 2.31659 47.0293C2.10272 46.8792 1.9295 46.6783 1.81231 46.4448C1.69513 46.2112 1.63768 45.9523 1.64518 45.6911C1.65268 45.4299 1.72485 45.1747 1.85524 44.9482L5.25234 38.9926C10.7361 37.5688 15.8483 34.9792 20.2403 31.4004C22.2366 34.0551 24.5527 36.4535 27.1361 38.5413V38.5413Z" fill="#170E9C"/>
<path id="Path 117" d="M33.9451 31.4279C31.952 34.0858 29.6361 36.4855 27.0507 38.5717C24.4677 36.4838 22.1521 34.0855 20.1562 31.4307C22.7464 29.33 25.0639 26.9138 27.0548 24.2383C29.0426 26.913 31.3573 29.3283 33.9451 31.4279V31.4279Z" fill="#2856F0"/>
<path id="Path 118" d="M33.3616 11.7972C32.0125 16.3131 29.8791 20.5562 27.0591 24.3325C24.2386 20.5562 22.1043 16.3131 20.7539 11.7972L25.7067 3.11727C25.8421 2.87831 26.0386 2.67953 26.2759 2.54124C26.5133 2.40296 26.7831 2.33008 27.0578 2.33008C27.3324 2.33008 27.6022 2.40296 27.8395 2.54124C28.0769 2.67953 28.2733 2.87831 28.4087 3.11727L33.3616 11.7972Z" fill="#170E9C"/>
<path id="Path 119" d="M27.0794 24.2833C25.0886 26.959 22.7711 29.3752 20.1808 31.4758C18.0066 28.5806 16.2325 25.4057 14.9062 22.0367L20.7727 11.748C22.1236 16.264 24.2584 20.5071 27.0794 24.2833V24.2833Z" fill="#2835D5"/>
<path id="Path 120" d="M20.242 31.4377C15.85 35.0166 10.7377 37.6062 5.25391 39.0299L14.9674 22C16.2935 25.3686 18.0677 28.5431 20.242 31.4377V31.4377Z" fill="#2856F0"/>
</g>
</g>
<g id="savart">
<g id="Group 162">
<path id="Path 122" d="M74.7892 16.9624C74.0767 16.0798 73.2039 15.3398 72.2167 14.7813C71.0673 14.1638 69.7755 13.8606 68.4714 13.9024C67.2078 13.8692 65.9581 14.1726 64.8502 14.7813C64.3778 15.0214 63.983 15.3906 63.7119 15.8459C63.4407 16.3012 63.3041 16.824 63.3179 17.3538C63.3014 17.7638 63.3711 18.1728 63.5225 18.5543C63.6739 18.9358 63.9035 19.2812 64.1968 19.5683C64.8042 20.1475 65.5122 20.6111 66.286 20.9361C67.1118 21.2914 67.9747 21.5535 68.8586 21.7174C69.7695 21.892 70.5508 22.0439 71.2027 22.1729C72.4095 22.4635 73.5951 22.8358 74.7515 23.2872C75.7962 23.6848 76.7657 24.2575 77.618 24.9808C78.4245 25.6806 79.0689 26.5474 79.5066 27.5213C79.9925 28.6744 80.2257 29.9182 80.1904 31.1691C80.2326 32.7285 79.8474 34.2699 79.0763 35.6261C78.3621 36.8387 77.3826 37.8739 76.2113 38.654C74.9897 39.4566 73.6323 40.0305 72.2054 40.3476C70.7213 40.6928 69.2026 40.8676 67.6788 40.8686C65.3767 40.9152 63.0874 40.5171 60.9363 39.6958C58.8388 38.7804 57.0433 37.2897 55.7578 35.3962L60.187 31.7485C61.1518 32.7125 62.2222 33.5647 63.378 34.2889C64.6752 35.0636 66.1672 35.4503 67.6774 35.4032C68.432 35.4015 69.1846 35.325 69.9241 35.1747C70.6304 35.0418 71.3117 34.7997 71.9436 34.4574C72.5048 34.1531 72.9934 33.7307 73.3755 33.2192C73.7457 32.7208 73.9416 32.1143 73.9327 31.4935C73.9461 31.0992 73.8809 30.7062 73.7411 30.3372C73.6012 29.9683 73.3892 29.6308 73.1178 29.3445C72.5641 28.7727 71.9009 28.3185 71.1678 28.0088C70.3894 27.6773 69.5831 27.4158 68.7583 27.2274C67.9114 27.0324 67.1621 26.8694 66.5103 26.7385C65.2512 26.4358 64.0572 26.0885 62.9281 25.6967C61.8541 25.3352 60.8432 24.8079 59.9322 24.1339C59.057 23.4781 58.3425 22.6318 57.8429 21.6589C57.2874 20.5026 57.0193 19.2293 57.0615 17.9471C57.0265 16.4824 57.3746 15.0339 58.0713 13.745C58.728 12.5691 59.641 11.5561 60.7426 10.7811C61.8902 9.9802 63.1684 9.38496 64.52 9.022C65.9089 8.63426 67.3441 8.43697 68.7861 8.4356C70.8401 8.43039 72.875 8.82891 74.7753 9.6084C76.6776 10.3837 78.2771 11.755 79.3339 13.5166L74.7892 16.9624Z" fill="#170E9C"/>
<path id="Path 123" d="M87.3877 12.9885C89.0423 11.4663 90.9935 10.3021 93.1191 9.56913C95.2103 8.82355 97.413 8.43832 99.6332 8.42982C101.61 8.38779 103.579 8.67399 105.462 9.27669C106.939 9.75463 108.303 10.5306 109.468 11.5567C110.476 12.4653 111.267 13.5898 111.78 14.8465C112.277 16.0781 112.531 17.3944 112.528 18.7227V34.4851C112.528 35.5706 112.55 36.5697 112.593 37.4824C112.637 38.3952 112.702 39.2634 112.788 40.087H107.578C107.447 38.5242 107.382 36.961 107.383 35.3974H107.253C106.145 37.2194 104.54 38.6881 102.628 39.6315C100.68 40.4909 98.568 40.9136 96.4396 40.8698C95.0505 40.8759 93.668 40.6784 92.3363 40.2833C91.0936 39.9233 89.9325 39.326 88.917 38.5242C87.9396 37.7428 87.1495 36.7525 86.6049 35.6258C85.9727 34.1892 85.6875 32.624 85.7725 31.0568C85.8574 29.4896 86.31 27.9644 87.0937 26.6046C88.0201 25.2248 89.2726 24.0948 90.7401 23.3148C92.4313 22.4172 94.2575 21.8014 96.1469 21.4916C98.3301 21.1114 100.543 20.925 102.759 20.9345H107.058V19.6322C107.054 18.8292 106.899 18.034 106.602 17.2881C106.292 16.498 105.827 15.7782 105.234 15.1711C104.588 14.517 103.811 14.0068 102.954 13.6738C101.914 13.2809 100.808 13.0917 99.6973 13.1166C98.6997 13.1018 97.704 13.2113 96.7333 13.4425C95.9388 13.641 95.1647 13.9139 94.4212 14.2574C93.7521 14.5672 93.1188 14.9492 92.5327 15.3967C91.9681 15.8322 91.4254 16.2449 90.9045 16.6348L87.3877 12.9885ZM103.931 25.2341C102.506 25.2357 101.082 25.3115 99.6652 25.4611C98.3098 25.5915 96.9755 25.8866 95.6916 26.34C94.5907 26.718 93.5903 27.342 92.7666 28.1645C92.386 28.5624 92.089 29.0325 91.893 29.5471C91.6971 30.0616 91.6063 30.6102 91.6259 31.1605C91.5617 31.9018 91.6933 32.6469 92.0076 33.3213C92.322 33.9958 92.8081 34.5757 93.4171 35.0032C94.8867 35.8562 96.5727 36.2637 98.2697 36.176C99.6812 36.2161 101.084 35.9376 102.373 35.3612C103.433 34.8718 104.369 34.1478 105.108 33.2441C105.796 32.3881 106.305 31.4031 106.606 30.3471C106.904 29.3206 107.058 28.2573 107.062 27.1882V25.2382L103.931 25.2341Z" fill="#170E9C"/>
<path id="Path 124" d="M117.305 9.21094H124.079L133.329 32.8552L142.187 9.21094H148.441L136.324 40.0853H129.875L117.305 9.21094Z" fill="#170E9C"/>
<path id="Path 125" d="M153.67 12.9885C155.325 11.4663 157.276 10.3022 159.402 9.56912C161.493 8.82357 163.696 8.43834 165.916 8.42982C167.892 8.38781 169.862 8.67401 171.745 9.27669C173.222 9.75466 174.585 10.5306 175.751 11.5567C176.76 12.4651 177.55 13.5897 178.064 14.8465C178.561 16.0782 178.815 17.3945 178.812 18.7227V34.4851C178.812 35.5706 178.834 36.5697 178.878 37.4824C178.921 38.3952 178.986 39.2634 179.073 40.087H173.862C173.731 38.5242 173.666 36.961 173.667 35.3974H173.536C172.428 37.2195 170.824 38.6882 168.912 39.6315C166.964 40.491 164.852 40.9136 162.724 40.8697C161.334 40.8758 159.951 40.6783 158.619 40.2833C157.376 39.923 156.215 39.3257 155.2 38.5242C154.223 37.7424 153.433 36.7522 152.888 35.6258C152.301 34.3735 152.011 33.0027 152.041 31.6201C151.978 29.8532 152.443 28.1075 153.376 26.606C154.303 25.2262 155.556 24.0962 157.024 23.3161C158.715 22.4184 160.542 21.8027 162.431 21.493C164.614 21.1129 166.827 20.9264 169.043 20.9359H173.341V19.6336C173.337 18.8306 173.182 18.0356 172.886 17.2895C172.576 16.4994 172.111 15.7795 171.518 15.1724C170.872 14.5183 170.095 14.0081 169.238 13.6751C168.198 13.2823 167.093 13.0932 165.981 13.118C164.984 13.1034 163.989 13.2128 163.019 13.4439C162.225 13.6425 161.45 13.9153 160.707 14.2587C160.038 14.5687 159.404 14.9507 158.818 15.398C158.254 15.8335 157.711 16.2463 157.19 16.6363L153.67 12.9885ZM170.218 25.2341C168.793 25.2357 167.369 25.3115 165.952 25.4611C164.597 25.5911 163.262 25.8862 161.978 26.34C160.878 26.7183 159.877 27.3422 159.054 28.1645C158.673 28.5625 158.376 29.0327 158.181 29.5472C157.985 30.0618 157.895 30.6103 157.914 31.1605C157.85 31.9018 157.982 32.6469 158.296 33.3213C158.61 33.9958 159.096 34.5757 159.705 35.0032C161.175 35.8561 162.861 36.2636 164.558 36.176C165.97 36.2163 167.373 35.9378 168.663 35.3612C169.723 34.8719 170.659 34.1479 171.398 33.2441C172.086 32.3881 172.595 31.4031 172.895 30.3471C173.194 29.3205 173.347 28.2572 173.351 27.1882V25.2382L170.218 25.2341Z" fill="#170E9C"/>
<path id="Path 126" d="M187.281 9.20996H193.144V13.965H193.273C193.667 13.135 194.195 12.3756 194.836 11.717C195.483 11.0476 196.217 10.4673 197.017 9.99129C197.846 9.50327 198.733 9.12056 199.656 8.85199C200.587 8.57552 201.552 8.43481 202.523 8.43416C203.407 8.42378 204.287 8.55594 205.129 8.82555L204.868 15.1447C204.39 15.0138 203.913 14.9065 203.437 14.8188C202.964 14.733 202.484 14.6897 202.003 14.6893C200.799 14.6083 199.591 14.7809 198.458 15.196C197.324 15.611 196.291 16.2593 195.424 17.0988C193.903 18.7061 193.143 21.203 193.145 24.5893V40.0913H187.283L187.281 9.20996Z" fill="#170E9C"/>
<path id="Path 127" d="M227.932 13.9281H219.528V28.1236C219.528 29.0048 219.55 29.8744 219.593 30.7323C219.621 31.5249 219.786 32.3067 220.08 33.043C220.347 33.707 220.8 34.28 221.384 34.6935C222.157 35.162 223.055 35.3813 223.957 35.3216C224.677 35.3191 225.397 35.253 226.106 35.1239C226.816 35.0017 227.5 34.7555 228.126 34.3968V39.8107C227.284 40.2528 226.367 40.533 225.422 40.6366C224.57 40.7687 223.711 40.846 222.849 40.8678C221.051 40.958 219.256 40.6305 217.606 39.911C216.473 39.3691 215.522 38.509 214.87 37.4359C214.275 36.3939 213.919 35.2326 213.828 34.0361C213.719 32.7807 213.664 31.5151 213.664 30.2393V13.9281H206.891V8.77468H213.664V0H219.528V8.77468H227.93L227.932 13.9281Z" fill="#170E9C"/>
</g>
</g>
</g>
</svg>
